<svg width="839" height="839" viewBox="0 0 839 839" fill="none" xmlns="http://www.w3.org/2000/svg">
  <g transform="scale(0.0819, -0.0819) translate(0, -10240)">
    <path d="M4620 8530 c-102 -8 -135 -22 -229 -90 -74 -54 -102 -89 -164 -202
-70 -130 -152 -463 -162 -660 -3 -67 -15 -220 -26 -338 -57 -634 -58 -656 -38
-1021 27 -491 27 -490 -31 -846 -28 -169 -54 -323 -58 -342 l-8 -35 -32 51
c-18 28 -49 98 -68 155 -45 130 -130 300 -199 397 -108 153 -178 197 -310 195
-81 -2 -221 -31 -272 -58 -38 -19 -179 -142 -214 -186 -16 -20 -54 -106 -89
-199 -53 -144 -61 -179 -71 -280 -6 -64 -17 -128 -25 -142 -26 -52 -105 -102
-134 -84 -17 10 -79 139 -112 234 -38 110 -68 161 -119 205 -83 71 -206 87
-357 46 -93 -25 -123 -42 -235 -135 -104 -86 -121 -110 -187 -259 -46 -104
-53 -128 -53 -185 -1 -116 68 -227 172 -275 35 -15 66 -21 126 -21 88 0 133
17 199 75 l34 30 61 -85 c34 -47 76 -96 94 -109 103 -77 247 -126 367 -125
148 0 203 13 334 77 117 58 128 66 207 152 46 50 96 109 110 130 32 48 99 230
100 273 0 18 3 50 8 72 l7 40 18 -55 c50 -149 210 -389 338 -506 162 -148 255
-181 454 -164 145 13 197 34 262 105 68 74 101 167 156 435 65 315 146 835
146 934 0 45 -9 247 -20 449 -21 399 -20 442 35 997 8 80 17 208 21 285 6 133
23 233 70 413 l17 62 57 0 c31 0 77 -7 103 -16 53 -18 42 7 111 -249 26 -97
41 -189 60 -360 30 -268 92 -1388 106 -1930 29 -1033 128 -2914 159 -3020 19
-67 104 -266 131 -308 30 -48 251 -227 328 -266 46 -23 264 -50 407 -51 142 0
260 32 318 88 35 33 149 178 167 212 60 113 187 439 230 590 48 172 50 182 85
545 20 204 72 656 116 1005 l81 635 -11 250 c-6 138 -32 639 -57 1115 -35 652
-44 902 -40 1014 7 147 7 149 58 285 28 75 56 141 62 148 6 6 47 13 90 15 l80
3 23 -75 c29 -94 76 -398 98 -635 9 -99 32 -468 50 -820 l34 -640 55 -264 c60
-287 76 -333 151 -418 108 -123 404 -261 615 -286 155 -18 208 -15 273 16 177
87 224 316 95 462 -22 25 -57 54 -77 64 -54 28 -181 61 -233 61 -44 0 -102 19
-175 57 -36 19 -36 20 -87 278 -23 114 -30 211 -61 795 -36 674 -54 892 -99
1190 -26 169 -91 422 -126 488 -10 20 -61 86 -112 147 -75 88 -105 116 -152
140 -59 30 -61 30 -247 33 -228 5 -367 -17 -488 -75 -152 -72 -203 -146 -325
-468 l-88 -230 -9 -196 c-8 -178 -5 -283 40 -1145 28 -522 53 -1028 56 -1124
l7 -175 -76 -595 c-42 -327 -92 -757 -111 -955 -41 -419 -61 -508 -175 -775
l-66 -155 -68 2 c-86 3 -127 31 -162 110 -20 45 -27 87 -39 241 -33 411 -114
2136 -130 2767 -11 472 -74 1601 -105 1895 l-30 285 -81 300 c-84 312 -91 332
-135 385 -44 51 -91 75 -288 144 l-187 66 -122 -1 c-67 -1 -160 -5 -207 -9z" fill="black"/>
  </g>
</svg>