<svg width="839" height="839" viewBox="0 0 839 839" fill="none" xmlns="http://www.w3.org/2000/svg">
  <g transform="scale(0.0819, -0.0819) translate(0, -10240)">
    <path d="M4663 8540 c-65 -14 -190 -87 -240 -141 -48 -52 -134 -216 -163 -309
-69 -224 -99 -358 -110 -492 -6 -73 -22 -218 -36 -323 -13 -104 -37 -305 -53
-445 -28 -254 -28 -256 -21 -660 l8 -405 -58 -300 c-73 -373 -82 -415 -91
-415 -15 0 -68 110 -89 185 -40 144 -105 292 -178 404 -97 151 -175 210 -287
219 -79 6 -239 -22 -300 -52 -55 -28 -193 -139 -227 -184 -15 -18 -56 -106
-91 -195 -55 -136 -67 -178 -77 -262 -12 -107 -24 -149 -49 -179 -18 -21 -83
-56 -104 -56 -21 0 -83 125 -112 225 -48 164 -109 246 -211 285 -69 25 -174
26 -269 1 -92 -24 -131 -45 -247 -136 l-97 -75 -73 -145 c-68 -136 -72 -149
-72 -212 0 -38 5 -85 13 -106 20 -58 82 -129 142 -162 48 -27 63 -30 139 -30
92 0 145 19 201 72 l27 25 61 -90 c66 -96 91 -119 183 -171 80 -45 168 -71
268 -78 132 -9 212 8 353 75 118 57 126 63 223 164 90 94 105 114 138 194 42
101 66 183 66 231 0 49 16 48 29 -3 33 -132 206 -410 322 -519 72 -68 157
-131 201 -149 61 -26 148 -34 265 -26 178 12 245 54 319 201 46 92 125 410
211 849 l65 335 -5 445 c-6 486 -7 472 68 1055 13 104 29 246 35 315 10 114
43 270 86 403 l16 47 54 0 c47 0 125 -21 146 -39 4 -4 26 -83 48 -176 35 -148
43 -202 60 -420 25 -326 40 -1184 40 -2270 0 -818 22 -2267 39 -2540 8 -135
10 -145 64 -292 30 -84 65 -166 77 -183 35 -48 269 -241 325 -266 36 -16 99
-29 225 -44 203 -24 329 -18 419 20 51 22 126 94 209 199 58 73 223 441 285
636 53 164 56 182 102 525 25 195 94 648 152 1005 l106 650 -18 1075 c-10 591
-15 1153 -11 1249 l6 174 63 151 c70 167 66 163 168 165 34 1 61 -4 67 -11 17
-21 50 -184 67 -328 30 -259 35 -380 50 -1100 l14 -725 41 -245 c22 -135 47
-270 56 -300 17 -60 78 -161 121 -202 121 -112 408 -244 590 -270 181 -26 262
-9 346 75 125 125 109 343 -34 446 -47 34 -188 81 -244 81 -36 0 -163 48 -198
74 -15 11 -26 58 -52 223 l-33 208 -11 660 c-15 869 -36 1157 -108 1465 -41
179 -52 205 -141 320 -128 167 -167 194 -310 212 -134 16 -409 5 -506 -21 -78
-21 -170 -66 -215 -105 -33 -29 -94 -113 -120 -165 -42 -81 -181 -421 -190
-464 -5 -23 -15 -127 -22 -232 -10 -156 -9 -354 5 -1105 9 -503 16 -998 16
-1100 l0 -185 -95 -585 c-53 -322 -118 -751 -145 -955 -46 -341 -53 -381 -94
-505 -25 -74 -76 -201 -114 -281 l-70 -146 -68 9 c-140 19 -171 81 -184 363
-16 336 -31 1487 -32 2310 0 1036 -21 2163 -47 2455 -17 194 -25 243 -85 499
-70 294 -87 343 -140 399 -39 43 -68 57 -273 139 l-168 67 -185 2 c-102 2
-204 -1 -227 -6z" fill="black"/>
  </g>
</svg>