<svg width="839" height="839" viewBox="0 0 839 839" fill="none" xmlns="http://www.w3.org/2000/svg">
  <g transform="scale(0.0819, -0.0819) translate(0, -10240)">
    <path d="M4763 8550 c-69 -16 -208 -103 -247 -155 -57 -75 -124 -197 -154
-281 -74 -210 -110 -357 -132 -529 -11 -93 -34 -250 -51 -348 -91 -543 -90
-534 -100 -1007 l-9 -435 -65 -285 c-60 -259 -87 -368 -101 -410 -10 -29 -65
89 -95 201 -50 191 -148 397 -245 516 -20 25 -59 54 -96 72 -53 27 -72 31
-144 31 -95 0 -218 -21 -266 -46 -52 -27 -183 -129 -219 -173 -19 -22 -64
-107 -101 -193 -53 -122 -70 -173 -83 -253 -9 -55 -21 -113 -27 -129 -15 -38
-65 -83 -107 -97 -32 -11 -36 -10 -50 11 -27 40 -63 131 -87 222 -30 112 -59
173 -104 218 -81 81 -197 106 -350 75 -100 -20 -133 -36 -243 -115 -116 -83
-138 -109 -213 -255 l-66 -129 4 -81 c3 -56 11 -93 27 -123 50 -97 156 -162
266 -162 58 0 155 31 176 56 35 42 44 37 102 -54 62 -98 88 -125 168 -175 96
-61 194 -86 344 -89 l130 -3 120 49 c144 58 175 79 282 188 71 72 89 97 133
190 35 74 54 131 62 182 6 41 14 73 18 71 4 -2 12 -29 19 -59 15 -67 124 -283
195 -385 59 -87 183 -214 252 -260 74 -48 136 -62 281 -63 107 0 137 3 183 21
71 27 127 81 174 166 48 87 132 382 238 830 l81 340 9 435 c10 475 12 499 98
1020 21 129 46 294 54 365 15 120 54 273 103 403 15 41 17 42 63 42 29 0 68
-10 102 -25 l54 -25 37 -192 c31 -164 38 -225 45 -408 10 -258 -10 -1515 -32
-2020 -29 -644 -57 -1878 -57 -2527 l0 -392 52 -158 c28 -86 62 -174 76 -194
32 -49 265 -254 317 -278 67 -32 371 -75 486 -68 143 8 180 25 276 123 45 45
93 97 107 116 58 77 227 428 287 593 59 164 63 183 126 549 35 208 120 663
188 1010 l124 631 6 295 c4 162 13 665 21 1117 10 569 20 862 30 955 14 131
16 138 79 273 73 158 74 160 182 149 l62 -7 21 -111 c45 -246 53 -516 40
-1341 l-11 -710 36 -275 c34 -262 38 -279 73 -350 43 -89 110 -159 214 -226
102 -65 279 -150 353 -167 134 -33 238 -48 278 -42 97 17 177 72 223 156 27
48 30 63 30 139 0 95 -19 146 -79 208 -51 55 -167 104 -276 117 -65 8 -188 69
-201 99 -5 12 -19 107 -32 211 l-23 190 12 640 c16 870 0 1242 -65 1548 -32
151 -37 161 -152 317 -111 150 -145 169 -338 190 -140 16 -382 8 -465 -15 -67
-19 -145 -55 -192 -91 -64 -47 -130 -156 -234 -381 l-102 -223 -23 -207 c-21
-184 -25 -288 -35 -888 -6 -374 -15 -871 -21 -1105 l-10 -425 -115 -579 c-63
-319 -144 -748 -179 -955 -74 -432 -94 -501 -230 -771 -42 -85 -78 -156 -79
-157 -1 -2 -31 2 -67 9 -93 16 -129 49 -159 143 l-23 73 12 714 c14 851 36
1685 56 2118 24 519 40 1762 27 2055 -11 245 -12 255 -71 549 -53 263 -65 305
-92 348 -18 27 -46 60 -64 74 -18 14 -116 61 -216 106 l-184 80 -115 8 c-140
11 -274 11 -317 0z" fill="black"/>
  </g>
</svg>