<svg width="839" height="839" viewBox="0 0 839 839" fill="none" xmlns="http://www.w3.org/2000/svg">
  <g transform="scale(0.0819, -0.0819) translate(0, -10240)">
    <path d="M4882 8559 c-50 -9 -163 -67 -213 -109 -60 -49 -158 -203 -204 -319
-79 -200 -123 -352 -145 -496 -12 -77 -37 -216 -56 -310 -117 -579 -122 -617
-148 -1080 l-24 -430 -72 -265 c-60 -226 -92 -336 -117 -410 -9 -29 -56 84
-89 217 -55 224 -158 448 -248 537 -48 48 -99 74 -164 85 -60 9 -234 -5 -290
-23 -53 -18 -220 -134 -258 -178 -15 -18 -61 -102 -101 -187 -62 -129 -78
-174 -98 -269 -13 -67 -31 -125 -42 -141 -25 -32 -104 -74 -126 -66 -19 8 -73
133 -88 207 -23 113 -59 206 -100 251 -74 85 -190 118 -334 96 -111 -16 -154
-35 -276 -116 -113 -76 -127 -92 -223 -259 -74 -130 -81 -238 -21 -340 86
-147 298 -191 431 -89 18 14 35 25 37 25 3 0 26 -35 51 -79 61 -106 88 -136
173 -192 97 -63 174 -88 311 -99 131 -11 156 -7 309 50 114 43 155 70 270 180
61 58 81 87 127 178 35 69 60 134 67 176 7 36 15 66 18 66 3 0 14 -33 23 -73
21 -86 117 -286 192 -401 60 -90 212 -243 272 -274 63 -32 139 -45 268 -46
114 -1 125 1 178 27 119 58 170 147 273 469 63 199 221 770 239 863 3 17 15
210 26 430 22 437 23 443 116 915 35 179 72 381 83 450 17 112 64 271 115 393
16 36 18 37 69 37 38 0 66 -8 102 -28 l49 -27 28 -170 c25 -156 27 -193 28
-465 1 -329 -51 -1384 -95 -1935 -55 -682 -152 -2429 -156 -2795 l-3 -185 43
-144 c23 -80 51 -161 61 -181 24 -48 257 -273 311 -300 23 -12 108 -36 188
-53 118 -24 172 -30 281 -31 177 -1 201 9 332 142 90 90 104 111 207 294 64
116 137 265 176 360 64 158 69 176 146 548 44 212 145 662 224 1000 l144 615
15 250 c9 138 36 642 61 1120 33 637 51 907 66 1010 21 136 23 144 90 278 l70
138 87 -3 87 -3 12 -60 c43 -205 43 -631 -1 -1455 l-33 -636 18 -199 c26 -281
37 -367 54 -415 24 -68 93 -163 154 -213 140 -113 368 -231 479 -247 31 -4 71
-13 87 -20 17 -6 60 -12 97 -12 116 0 218 65 270 171 18 37 23 62 22 126 0 94
-27 159 -91 216 -46 41 -171 97 -240 106 -44 5 -154 53 -196 85 -14 11 -21 48
-37 213 l-19 200 34 650 c47 873 44 1240 -8 1535 -29 163 -36 179 -125 311
-114 170 -151 197 -317 226 -138 24 -425 24 -512 0 -70 -19 -165 -64 -205 -99
-58 -50 -128 -163 -230 -373 l-107 -220 -26 -170 c-21 -140 -34 -331 -75
-1095 -27 -509 -54 -1013 -61 -1120 l-11 -195 -143 -615 c-79 -338 -175 -768
-214 -956 -81 -394 -113 -490 -251 -738 -90 -160 -86 -157 -171 -137 -64 15
-107 58 -129 130 -19 61 -20 77 -10 315 26 670 107 2051 155 2656 42 526 95
1612 95 1939 l0 291 -50 305 c-55 337 -67 375 -140 437 -22 19 -124 75 -226
123 -178 84 -189 88 -277 96 -160 13 -281 16 -325 8z" fill="black"/>
  </g>
</svg>